<svg width="416" height="648" fill="none" xmlns="http://www.w3.org/2000/svg"><rect y="215.564" width="173.964" height="208" rx="28.904" transform="rotate(-90 0 215.564)" fill="url(#paint0_linear)"/><rect x="2.023" y="171.94" width="169.917" height="203.953" rx="26.88" transform="rotate(-90 2.023 171.94)" fill="url(#paint1_linear)"/><rect x="2.023" y="171.94" width="169.917" height="203.953" rx="26.88" transform="rotate(-90 2.023 171.94)" stroke="url(#paint2_linear)" stroke-width="4.047"/><rect x="2.023" y="171.94" width="169.917" height="203.953" rx="26.88" transform="rotate(-90 2.023 171.94)" stroke="url(#paint3_linear)" stroke-width="4.047"/><path d="M112.125 98.134H96.2l-3.038 7.35h-8.134l15.288-34.3h7.84l15.337 34.3h-8.33l-3.038-7.35zm-2.499-6.027l-5.439-13.132-5.439 13.132h10.878z" fill="#fff"/><rect x="208" y="431.564" width="173.964" height="208" rx="28.904" transform="rotate(-90 208 431.564)" fill="url(#paint4_linear)"/><rect x="210.023" y="387.94" width="169.917" height="203.953" rx="26.88" transform="rotate(-90 210.023 387.94)" fill="url(#paint5_linear)"/><rect x="210.023" y="387.94" width="169.917" height="203.953" rx="26.88" transform="rotate(-90 210.023 387.94)" stroke="url(#paint6_linear)" stroke-width="4.047"/><rect x="210.023" y="387.94" width="169.917" height="203.953" rx="26.88" transform="rotate(-90 210.023 387.94)" stroke="url(#paint7_linear)" stroke-width="4.047"/><path d="M322.722 303.648c1.96.62 3.496 1.666 4.606 3.136 1.111 1.437 1.666 3.217 1.666 5.341 0 3.005-1.176 5.324-3.528 6.958-2.319 1.6-5.716 2.401-10.192 2.401h-17.738v-34.3h16.758c4.182 0 7.383.8 9.604 2.401 2.254 1.6 3.381 3.773 3.381 6.517 0 1.666-.408 3.152-1.225 4.459-.784 1.306-1.894 2.335-3.332 3.087zm-17.297-10.486v8.085h7.889c1.96 0 3.447-.343 4.459-1.029 1.013-.686 1.519-1.699 1.519-3.038 0-1.34-.506-2.336-1.519-2.989-1.012-.686-2.499-1.029-4.459-1.029h-7.889zm9.261 22.344c2.091 0 3.659-.343 4.704-1.029 1.078-.686 1.617-1.748 1.617-3.185 0-2.842-2.107-4.263-6.321-4.263h-9.261v8.477h9.261z" fill="#fff"/><rect y="647.564" width="173.964" height="208" rx="28.904" transform="rotate(-90 0 647.564)" fill="url(#paint8_linear)"/><rect x="2.023" y="603.94" width="169.917" height="203.953" rx="26.88" transform="rotate(-90 2.023 603.94)" fill="url(#paint9_linear)"/><rect x="2.023" y="603.94" width="169.917" height="203.953" rx="26.88" transform="rotate(-90 2.023 603.94)" stroke="url(#paint10_linear)" stroke-width="4.047"/><rect x="2.023" y="603.94" width="169.917" height="203.953" rx="26.88" transform="rotate(-90 2.023 603.94)" stroke="url(#paint11_linear)" stroke-width="4.047"/><path d="M105.951 538.072c-3.495 0-6.664-.752-9.506-2.254-2.81-1.536-5.03-3.643-6.664-6.321-1.6-2.712-2.4-5.766-2.4-9.163 0-3.398.8-6.436 2.4-9.114 1.634-2.712 3.855-4.819 6.664-6.321 2.842-1.536 6.027-2.303 9.555-2.303 2.973 0 5.652.522 8.036 1.568 2.418 1.045 4.443 2.548 6.076 4.508l-5.096 4.704c-2.319-2.679-5.194-4.018-8.624-4.018-2.123 0-4.018.473-5.684 1.421a9.924 9.924 0 00-3.92 3.871c-.914 1.666-1.372 3.56-1.372 5.684 0 2.123.458 4.018 1.372 5.684a10.276 10.276 0 003.92 3.92c1.666.914 3.561 1.372 5.684 1.372 3.43 0 6.305-1.356 8.624-4.067l5.096 4.704c-1.633 1.992-3.658 3.511-6.076 4.557-2.417 1.045-5.112 1.568-8.085 1.568z" fill="#fff"/><defs><linearGradient id="paint0_linear" x1="35.351" y1="215.067" x2="33.467" y2="423.96" gradientUnits="userSpaceOnUse"><stop stop-color="#14191C"/><stop offset=".156" stop-color="#14191C"/><stop offset=".759" stop-color="#14191C"/><stop offset=".834" stop-color="#161B1F"/><stop offset=".917" stop-color="#14191C"/><stop offset="1" stop-color="#14191C"/></linearGradient><linearGradient id="paint1_linear" x1="86.982" y1="173.964" x2="86.982" y2="381.964" gradientUnits="userSpaceOnUse"><stop stop-color="#14191C"/><stop offset=".832" stop-color="#2B373E"/><stop offset="1" stop-color="#38434A"/></linearGradient><linearGradient id="paint2_linear" x1="159.085" y1="180.533" x2="16.563" y2="376.648" gradientUnits="userSpaceOnUse"><stop offset=".671" stop-color="#545D63"/><stop offset=".926" stop-color="#242B2F"/><stop offset="1" stop-color="#576E7B"/></linearGradient><linearGradient id="paint3_linear" x1="19.818" y1="140.788" x2="86.215" y2="236.779" gradientUnits="userSpaceOnUse"><stop stop-color="#fff" stop-opacity=".4"/><stop offset="1" stop-color="#fff" stop-opacity="0"/></linearGradient><linearGradient id="paint4_linear" x1="243.351" y1="431.067" x2="241.467" y2="639.96" gradientUnits="userSpaceOnUse"><stop stop-color="#14191C"/><stop offset=".156" stop-color="#14191C"/><stop offset=".759" stop-color="#14191C"/><stop offset=".834" stop-color="#161B1F"/><stop offset=".917" stop-color="#14191C"/><stop offset="1" stop-color="#14191C"/></linearGradient><linearGradient id="paint5_linear" x1="294.982" y1="389.964" x2="294.982" y2="597.964" gradientUnits="userSpaceOnUse"><stop stop-color="#14191C"/><stop offset=".832" stop-color="#2B373E"/><stop offset="1" stop-color="#38434A"/></linearGradient><linearGradient id="paint6_linear" x1="367.085" y1="396.533" x2="224.563" y2="592.648" gradientUnits="userSpaceOnUse"><stop offset=".671" stop-color="#545D63"/><stop offset=".926" stop-color="#242B2F"/><stop offset="1" stop-color="#576E7B"/></linearGradient><linearGradient id="paint7_linear" x1="227.818" y1="356.788" x2="294.215" y2="452.779" gradientUnits="userSpaceOnUse"><stop stop-color="#fff" stop-opacity=".4"/><stop offset="1" stop-color="#fff" stop-opacity="0"/></linearGradient><linearGradient id="paint8_linear" x1="35.351" y1="647.067" x2="33.467" y2="855.96" gradientUnits="userSpaceOnUse"><stop stop-color="#14191C"/><stop offset=".156" stop-color="#14191C"/><stop offset=".759" stop-color="#14191C"/><stop offset=".834" stop-color="#161B1F"/><stop offset=".917" stop-color="#14191C"/><stop offset="1" stop-color="#14191C"/></linearGradient><linearGradient id="paint9_linear" x1="86.982" y1="605.964" x2="86.982" y2="813.964" gradientUnits="userSpaceOnUse"><stop stop-color="#14191C"/><stop offset=".832" stop-color="#2B373E"/><stop offset="1" stop-color="#38434A"/></linearGradient><linearGradient id="paint10_linear" x1="159.085" y1="612.533" x2="16.563" y2="808.648" gradientUnits="userSpaceOnUse"><stop offset=".671" stop-color="#545D63"/><stop offset=".926" stop-color="#242B2F"/><stop offset="1" stop-color="#576E7B"/></linearGradient><linearGradient id="paint11_linear" x1="19.818" y1="572.788" x2="86.215" y2="668.779" gradientUnits="userSpaceOnUse"><stop stop-color="#fff" stop-opacity=".4"/><stop offset="1" stop-color="#fff" stop-opacity="0"/></linearGradient></defs></svg>