<svg width="208" height="687" fill="none" xmlns="http://www.w3.org/2000/svg"><rect y="215.564" width="173.964" height="208" rx="28.904" transform="rotate(-90 0 215.564)" fill="url(#paint0_linear)"/><rect x="2.023" y="171.94" width="169.917" height="203.953" rx="26.88" transform="rotate(-90 2.023 171.94)" fill="url(#paint1_linear)"/><rect x="2.023" y="171.94" width="169.917" height="203.953" rx="26.88" transform="rotate(-90 2.023 171.94)" stroke="url(#paint2_linear)" stroke-width="4.047"/><rect x="2.023" y="171.94" width="169.917" height="203.953" rx="26.88" transform="rotate(-90 2.023 171.94)" stroke="url(#paint3_linear)" stroke-width="4.047"/><path d="M112.125 98.134H96.2l-3.038 7.35h-8.134l15.288-34.3h7.84l15.337 34.3h-8.33l-3.038-7.35zm-2.499-6.027l-5.439-13.132-5.439 13.132h10.878z" fill="#fff"/><rect y="451.127" width="173.964" height="208" rx="28.904" transform="rotate(-90 0 451.127)" fill="url(#paint4_linear)"/><rect x="2.023" y="407.504" width="169.917" height="203.953" rx="26.88" transform="rotate(-90 2.023 407.504)" fill="url(#paint5_linear)"/><rect x="2.023" y="407.504" width="169.917" height="203.953" rx="26.88" transform="rotate(-90 2.023 407.504)" stroke="url(#paint6_linear)" stroke-width="4.047"/><rect x="2.023" y="407.504" width="169.917" height="203.953" rx="26.88" transform="rotate(-90 2.023 407.504)" stroke="url(#paint7_linear)" stroke-width="4.047"/><path d="M114.722 323.211c1.96.621 3.496 1.666 4.606 3.136 1.111 1.438 1.666 3.218 1.666 5.341 0 3.006-1.176 5.325-3.528 6.958-2.319 1.601-5.716 2.401-10.192 2.401H89.536v-34.3h16.758c4.182 0 7.383.801 9.604 2.401 2.254 1.601 3.381 3.773 3.381 6.517 0 1.666-.408 3.153-1.225 4.459-.784 1.307-1.894 2.336-3.332 3.087zm-17.297-10.486v8.085h7.889c1.96 0 3.447-.343 4.459-1.029 1.013-.686 1.519-1.698 1.519-3.038 0-1.339-.506-2.335-1.519-2.989-1.012-.686-2.499-1.029-4.459-1.029h-7.889zm9.261 22.344c2.091 0 3.659-.343 4.704-1.029 1.078-.686 1.617-1.747 1.617-3.185 0-2.842-2.107-4.263-6.321-4.263h-9.26v8.477h9.26z" fill="#fff"/><rect y="686.691" width="173.964" height="208" rx="28.904" transform="rotate(-90 0 686.691)" fill="url(#paint8_linear)"/><rect x="2.023" y="643.068" width="169.917" height="203.953" rx="26.88" transform="rotate(-90 2.023 643.068)" fill="url(#paint9_linear)"/><rect x="2.023" y="643.068" width="169.917" height="203.953" rx="26.88" transform="rotate(-90 2.023 643.068)" stroke="url(#paint10_linear)" stroke-width="4.047"/><rect x="2.023" y="643.068" width="169.917" height="203.953" rx="26.88" transform="rotate(-90 2.023 643.068)" stroke="url(#paint11_linear)" stroke-width="4.047"/><path d="M105.951 577.199c-3.495 0-6.664-.751-9.506-2.254-2.81-1.535-5.03-3.642-6.664-6.321-1.6-2.711-2.4-5.766-2.4-9.163 0-3.397.8-6.435 2.4-9.114 1.634-2.711 3.855-4.818 6.664-6.321 2.842-1.535 6.027-2.303 9.555-2.303 2.973 0 5.652.523 8.036 1.568 2.418 1.045 4.443 2.548 6.076 4.508l-5.096 4.704c-2.319-2.679-5.194-4.018-8.624-4.018-2.123 0-4.018.474-5.684 1.421a9.93 9.93 0 00-3.92 3.871c-.914 1.666-1.372 3.561-1.372 5.684s.458 4.018 1.372 5.684a10.27 10.27 0 003.92 3.92c1.666.915 3.561 1.372 5.684 1.372 3.43 0 6.305-1.356 8.624-4.067l5.096 4.704c-1.633 1.993-3.658 3.512-6.076 4.557-2.417 1.045-5.112 1.568-8.085 1.568z" fill="#fff"/><defs><linearGradient id="paint0_linear" x1="35.351" y1="215.067" x2="33.467" y2="423.96" gradientUnits="userSpaceOnUse"><stop stop-color="#14191C"/><stop offset=".156" stop-color="#14191C"/><stop offset=".759" stop-color="#14191C"/><stop offset=".834" stop-color="#161B1F"/><stop offset=".917" stop-color="#14191C"/><stop offset="1" stop-color="#14191C"/></linearGradient><linearGradient id="paint1_linear" x1="86.982" y1="173.964" x2="86.982" y2="381.964" gradientUnits="userSpaceOnUse"><stop stop-color="#14191C"/><stop offset=".832" stop-color="#2B373E"/><stop offset="1" stop-color="#38434A"/></linearGradient><linearGradient id="paint2_linear" x1="159.085" y1="180.533" x2="16.563" y2="376.648" gradientUnits="userSpaceOnUse"><stop offset=".671" stop-color="#545D63"/><stop offset=".926" stop-color="#242B2F"/><stop offset="1" stop-color="#576E7B"/></linearGradient><linearGradient id="paint3_linear" x1="19.818" y1="140.788" x2="86.215" y2="236.779" gradientUnits="userSpaceOnUse"><stop stop-color="#fff" stop-opacity=".4"/><stop offset="1" stop-color="#fff" stop-opacity="0"/></linearGradient><linearGradient id="paint4_linear" x1="35.351" y1="450.63" x2="33.467" y2="659.524" gradientUnits="userSpaceOnUse"><stop stop-color="#14191C"/><stop offset=".156" stop-color="#14191C"/><stop offset=".759" stop-color="#14191C"/><stop offset=".834" stop-color="#161B1F"/><stop offset=".917" stop-color="#14191C"/><stop offset="1" stop-color="#14191C"/></linearGradient><linearGradient id="paint5_linear" x1="86.982" y1="409.527" x2="86.982" y2="617.527" gradientUnits="userSpaceOnUse"><stop stop-color="#14191C"/><stop offset=".832" stop-color="#2B373E"/><stop offset="1" stop-color="#38434A"/></linearGradient><linearGradient id="paint6_linear" x1="159.085" y1="416.097" x2="16.563" y2="612.212" gradientUnits="userSpaceOnUse"><stop offset=".671" stop-color="#545D63"/><stop offset=".926" stop-color="#242B2F"/><stop offset="1" stop-color="#576E7B"/></linearGradient><linearGradient id="paint7_linear" x1="19.818" y1="376.352" x2="86.215" y2="472.342" gradientUnits="userSpaceOnUse"><stop stop-color="#fff" stop-opacity=".4"/><stop offset="1" stop-color="#fff" stop-opacity="0"/></linearGradient><linearGradient id="paint8_linear" x1="35.351" y1="686.194" x2="33.467" y2="895.088" gradientUnits="userSpaceOnUse"><stop stop-color="#14191C"/><stop offset=".156" stop-color="#14191C"/><stop offset=".759" stop-color="#14191C"/><stop offset=".834" stop-color="#161B1F"/><stop offset=".917" stop-color="#14191C"/><stop offset="1" stop-color="#14191C"/></linearGradient><linearGradient id="paint9_linear" x1="86.982" y1="645.091" x2="86.982" y2="853.091" gradientUnits="userSpaceOnUse"><stop stop-color="#14191C"/><stop offset=".832" stop-color="#2B373E"/><stop offset="1" stop-color="#38434A"/></linearGradient><linearGradient id="paint10_linear" x1="159.085" y1="651.66" x2="16.563" y2="847.776" gradientUnits="userSpaceOnUse"><stop offset=".671" stop-color="#545D63"/><stop offset=".926" stop-color="#242B2F"/><stop offset="1" stop-color="#576E7B"/></linearGradient><linearGradient id="paint11_linear" x1="19.818" y1="611.915" x2="86.215" y2="707.906" gradientUnits="userSpaceOnUse"><stop stop-color="#fff" stop-opacity=".4"/><stop offset="1" stop-color="#fff" stop-opacity="0"/></linearGradient></defs></svg>