<svg version="1.1" id="Слой_1" xmlns="http://www.w3.org/2000/svg" x="0" y="0" viewBox="0 0 345 71" xml:space="preserve"><style>.st0{fill:#14191c}</style><path class="st0" d="M151.8.5h8.4v70h-8.4zM162.2 35.2h16.7v8.4h-16.7zM162.2.5v8.4h16.7v10.4h8.4V.5zM222.3 10.9h8.4v49.2h-8.4zM197.3.5h58.4v8.4h-58.4zM197.3 10.9h8.4v8.4h-8.4zM247.3 10.9h8.4v8.4h-8.4zM222.3 62.1h8.4v8.4h-8.4z"/><g><path class="st0" d="M265.9 45.5h8.4v24.9h-8.4zM266 35.2h36.1v8.4H266zM265.9.5h8.4v32.6h-8.4zM276.3.5H302v8.4h-25.7zM276.3 62.1H302v8.4h-25.7z"/></g><g><path class="st0" d="M.9 11.2h8.4v48.7H.9zM11.3.5v8.7c14.6 0 26.3 11.8 26.3 26.3S25.8 61.8 11.3 61.8v8.7c19.3 0 35-15.7 35-35S30.6.5 11.3.5zM.9 61.8h8.4v8.7H.9zM.9.5h8.4v8.7H.9z"/></g><g><path class="st0" d="M56.5.5h8.4v32.6h-8.4zM56.5 45.5h8.4v25h-8.4z"/><path class="st0" d="M88.5 22C88.5 10.1 78.9.5 67 .5v8.4c7.3 0 13.1 5.9 13.1 13.1 0 7.2-5.9 13.1-13.1 13.1H56.5v8.4h10.4c.5 0 1 0 1.5-.1l11.3 27h8.7l-12.1-29c7.2-3.5 12.2-10.8 12.2-19.4z"/></g><g><path class="st0" d="M312.2.5h8.4v32.6h-8.4zM312.2 45.5h8.4v25h-8.4z"/><path class="st0" d="M344.1 22c0-11.9-9.6-21.5-21.5-21.5v8.4c7.3 0 13.1 5.9 13.1 13.1 0 7.2-5.9 13.1-13.1 13.1h-10.4v8.4h10.4c.5 0 1 0 1.5-.1l11.3 27h8.7l-12.1-29c7.2-3.5 12.1-10.8 12.1-19.4z"/></g><g><path class="st0" d="M133.2 45.6h8.4v24.9h-8.4zM98.6 45.6v24.9h8.4V45.6zM98.7 35.2h43.1v8.4H98.7zM133.2 22v11.1h8.4V22c0-11.9-9.6-21.5-21.5-21.5S98.6 10.1 98.6 22v11.1h8.4V22c0-7.2 5.9-13.1 13.1-13.1 7.3 0 13.1 5.9 13.1 13.1z"/></g></svg>