<svg xmlns="http://www.w3.org/2000/svg" viewBox="0 0 500 500"><path d="M118.1 487.5c-58.2 0-105.6-47.4-105.6-105.6V118.1c0-58.2 47.4-105.6 105.6-105.6h263.8c58.2 0 105.6 47.4 105.6 105.6v263.8c0 58.2-47.4 105.6-105.6 105.6H118.1z" fill="#14191c"/><path d="M381.9 22.5c52.7 0 95.6 42.9 95.6 95.6v263.8c0 52.7-42.9 95.6-95.6 95.6H118.1c-52.7 0-95.6-42.9-95.6-95.6V118.1c0-52.7 42.9-95.6 95.6-95.6h263.8m0-20H118.1C54.2 2.5 2.5 54.2 2.5 118.1v263.8c0 63.8 51.7 115.6 115.6 115.6h263.8c63.8 0 115.6-51.7 115.6-115.6V118.1c0-63.9-51.7-115.6-115.6-115.6z" fill="#fff"/><path d="M254.2 114l41.3 83.7c.7 1.4 2 2.3 3.5 2.6l92.4 13.4c3.8.6 5.4 5.3 2.6 8l-66.9 65.2c-1.1 1.1-1.6 2.6-1.3 4.1l15.8 92c.7 3.8-3.3 6.7-6.8 4.9l-82.7-43.5c-1.4-.7-3-.7-4.3 0L165.2 388c-3.4 1.8-7.4-1.1-6.8-4.9l15.8-92c.3-1.5-.2-3.1-1.3-4.1L106 221.7c-2.8-2.7-1.2-7.4 2.6-8l92.4-13.4c1.5-.2 2.8-1.2 3.5-2.6l41.3-83.7c1.7-3.4 6.7-3.4 8.4 0z" fill="#14191c" stroke="#fff" stroke-width="20" stroke-miterlimit="10"/></svg>