<?xml version="1.0" standalone="no"?>
<!DOCTYPE svg PUBLIC "-//W3C//DTD SVG 20010904//EN"
 "http://www.w3.org/TR/2001/REC-SVG-20010904/DTD/svg10.dtd">
<svg version="1.0" xmlns="http://www.w3.org/2000/svg"
 width="700.000000pt" height="700.000000pt" viewBox="0 0 700.000000 700.000000"
 preserveAspectRatio="xMidYMid meet">
<metadata>
Created by potrace 1.14, written by Peter Selinger 2001-2017
</metadata>
<g transform="translate(0.000000,700.000000) scale(0.100000,-0.100000)"
fill="#000000" stroke="none">
<path d="M845 6972 l-21 -3 0 -3469 0 -3470 343 0 342 0 0 3470 c0 3259 -1
3470 -17 3471 -55 2 -631 3 -647 1z"/>
<path d="M2733 6972 l-33 -3 0 -427 0 -427 100 -3 c55 -2 109 -5 119 -7 11 -2
52 -6 93 -10 40 -4 127 -17 193 -30 893 -177 1626 -801 1943 -1655 58 -155
109 -346 128 -475 2 -16 6 -41 9 -55 28 -142 28 -575 -1 -760 -94 -620 -403
-1183 -874 -1594 -65 -56 -245 -192 -294 -221 -18 -11 -74 -44 -124 -73 -359
-210 -807 -335 -1214 -341 l-78 -1 0 -430 0 -430 28 -1 c276 -8 708 59 1027
162 780 249 1456 774 1887 1464 225 360 396 790 464 1163 12 64 15 84 28 167
8 50 18 124 21 165 3 41 8 95 11 120 5 47 5 395 0 465 -8 101 -18 201 -21 215
-2 8 -7 38 -11 65 -3 28 -17 104 -30 170 -14 66 -27 131 -30 145 -18 90 -127
420 -172 520 -242 543 -527 928 -968 1310 -224 194 -567 406 -863 532 -246
105 -609 211 -794 233 -23 3 -53 7 -67 10 -59 12 -191 25 -304 31 -66 3 -125
6 -131 7 -5 2 -25 1 -42 -1z"/>
<path d="M1767 6962 c-2 -4 -3 -187 -3 -406 l1 -399 333 -1 c212 -1 337 3 342
9 4 6 8 189 8 407 l0 397 -339 0 c-186 0 -340 -4 -342 -7z"/>
<path d="M1768 5870 c-3 -13 -2 -4735 1 -4750 1 -4 639 -5 674 -1 4 1 7 1073
7 2384 l0 2383 -339 0 c-297 0 -340 -2 -343 -16z"/>
<path d="M2689 5862 c0 -9 -1 -142 -2 -294 l-2 -278 25 -1 c153 -7 217 -14
367 -43 46 -9 177 -48 236 -71 633 -238 1083 -819 1154 -1488 14 -124 7 -349
-13 -477 -13 -85 -56 -247 -90 -337 -161 -432 -488 -789 -910 -993 -127 -61
-326 -124 -459 -146 -16 -2 -54 -8 -83 -13 -29 -4 -89 -9 -134 -10 -46 -1 -85
-4 -87 -6 -2 -3 -4 -133 -5 -291 -1 -314 -4 -299 59 -297 43 1 210 13 237 18
13 2 41 6 63 9 381 55 749 211 1085 460 115 86 342 310 432 426 123 160 256
386 318 540 12 30 28 69 35 85 19 45 74 219 80 256 3 18 8 35 10 39 8 13 42
206 52 300 10 96 10 403 0 500 -10 91 -33 228 -48 284 -6 23 -13 52 -16 65
-14 77 -104 318 -170 450 -330 673 -942 1139 -1683 1285 -125 24 -198 32 -360
40 -79 4 -90 3 -91 -12z"/>
<path d="M1766 831 c-3 -6 0 -791 3 -801 1 -4 590 -5 662 -1 16 1 17 37 17
404 l0 404 -339 0 c-187 0 -341 -3 -343 -6z"/>
</g>
</svg>
