<svg width="18" height="18" fill="none" xmlns="http://www.w3.org/2000/svg"><g clip-path="url(#clip0)" fill="#fff"><path d="M11.932 9.092L18 12.928V5.095l-6.068 3.998zM0 5.094v7.834l6.068-3.836L0 5.094zM16.875 2.813H1.125c-.561 0-1.007.418-1.091.957L9 9.677l8.966-5.907c-.084-.539-.53-.958-1.091-.958zM10.901 9.772L9.31 10.82a.562.562 0 01-.62 0L7.1 9.77.036 14.239c.087.534.53.95 1.09.95h15.75c.558 0 1.002-.416 1.088-.95l-7.063-4.466z"/></g><defs><clipPath id="clip0"><path fill="#fff" d="M0 0h18v18H0z"/></clipPath></defs></svg>