<svg xmlns="http://www.w3.org/2000/svg" viewBox="0 0 70 70"><path fill="#FFF" d="M68.46 24.703C64.758 12.662 54.736 3.391 42.266.758a34.7 34.7 0 00-2.553-.441A35.382 35.382 0 0035 0c-.719 0-1.431.024-2.139.067C14.528 1.173 0 16.389 0 35s14.528 33.827 32.861 34.933c.708.043 1.42.067 2.139.067.237 0 .473-.004.709-.009.968-.02 1.927-.075 2.874-.172C56.23 68.025 70 53.121 70 35c0-3.584-.54-7.041-1.54-10.297zM38.583 61.606a27.186 27.186 0 01-5.722.153C19.035 60.669 8.156 49.106 8.156 35c0-14.105 10.88-25.67 24.705-26.76a27.528 27.528 0 012.848-.075c.971.026 1.93.103 2.874.229l.032.004a26.85 26.85 0 013.651.754c8.772 2.461 15.727 9.267 18.396 17.949a26.824 26.824 0 011.182 7.898c0 13.612-10.13 24.855-23.261 26.607z"/><path fill="#FFF" d="M30.907 34.407c.787-.993 1.28-2.23 1.29-3.592a5.89 5.89 0 00-5.843-5.923l-7.919-.054-.022 3.27 3.27.022 1.827.012 2.822.019a2.616 2.616 0 012.595 2.63 2.616 2.616 0 01-2.63 2.595l-4.649-.032.032-4.632-3.27-.022-.032 4.632-.08 11.765 3.27.022.022-3.27.006-.934.029-4.291.278.002 5.735.039a2.616 2.616 0 012.595 2.63 2.617 2.617 0 01-2.63 2.595l-5.42-.037-.022 3.27 5.42.037a5.89 5.89 0 005.923-5.842 5.885 5.885 0 00-2.597-4.911z"/><g fill="#FFF"><path d="M39.335 34.63c.194-3.499 3.093-6.289 6.64-6.289 1.373 0 2.704.428 3.813 1.203.716.5 1.677.456 2.322-.132.87-.792.797-2.194-.164-2.872a10.37 10.37 0 00-5.972-1.898c-5.587 0-10.152 4.447-10.348 9.988h3.709zM45.975 41.658c-3.546 0-6.446-2.79-6.64-6.289h-3.708c.196 5.54 4.761 9.988 10.348 9.988a10.37 10.37 0 005.972-1.898c.961-.678 1.034-2.081.164-2.872a1.86 1.86 0 00-2.322-.132 6.662 6.662 0 01-3.814 1.203z"/></g></svg>