<svg xmlns="http://www.w3.org/2000/svg" viewBox="0 0 200 200"><path d="M192.1 132.1c3.5-10.1 5.4-20.9 5.4-32.1 0-11.2-1.9-22-5.4-32.1l-.3-.9C178.3 29.4 142.2 2.4 100 2.4c-42.2 0-78.3 27-91.8 64.6l-.3.9C4.4 78 2.4 88.8 2.4 100c0 11.2 1.9 22 5.4 32.1l.3.9c13.6 37.6 49.6 64.6 91.8 64.6 42.2 0 78.3-27 91.8-64.6.2-.3.3-.6.4-.9zM100 183.6c-3.7 0-9.7-6.7-14.7-21.7-2.4-7.2-4.3-15.6-5.8-24.6h40.9c-1.4 9.1-3.3 17.4-5.8 24.6-4.9 15-10.9 21.7-14.6 21.7zm-22.2-60.4c-.7-7.5-1-15.2-1-23.2s.4-15.7 1-23.2h44.3c.7 7.5 1 15.2 1 23.2s-.4 15.7-1 23.2H77.8zM16.4 100c0-8 1.1-15.8 3.3-23.2h44.1c-.7 7.6-1 15.4-1 23.2 0 7.8.3 15.6 1 23.2H19.7c-2.1-7.4-3.3-15.2-3.3-23.2zM100 16.4c3.7 0 9.7 6.7 14.7 21.7 2.4 7.2 4.4 15.6 5.8 24.6h-41c1.4-9.1 3.3-17.4 5.8-24.6 5-15 11-21.7 14.7-21.7zm36.2 60.4h44.1c2.1 7.4 3.3 15.2 3.3 23.2s-1.1 15.8-3.3 23.2h-44.1c.7-7.6 1-15.4 1-23.2 0-7.8-.3-15.6-1-23.2zm38.6-14h-40.2c-2.5-17.2-6.8-32.5-12.7-43.5 23.2 6.3 42.4 22.4 52.9 43.5zM78.1 19.3c-6 10.9-10.3 26.3-12.7 43.5H25.2c10.5-21.1 29.7-37.2 52.9-43.5zM25.2 137.2h40.2c2.5 17.2 6.8 32.5 12.7 43.5-23.2-6.3-42.4-22.4-52.9-43.5zm96.7 43.5c6-10.9 10.3-26.3 12.7-43.5h40.2c-10.5 21.1-29.7 37.2-52.9 43.5zm0 0" fill="#14191c"/></svg>