<svg version="1.1" id="Слой_1" xmlns="http://www.w3.org/2000/svg" x="0" y="0" viewBox="0 0 200 200" xml:space="preserve"><style>.st0{fill:#14191c}</style><path class="st0" d="M100 3.5c1.4 0 2.7.7 3.4 1.8l53 76.9c.9 1.2 1 2.8.3 4.2l-22.2 46.2c-1 2.1-3.5 3-5.6 2-2.1-1-3-3.5-2-5.6l21.2-44L100 15.1 51.8 85 73 129c1 2.1.1 4.6-2 5.6s-4.6.1-5.6-2L43.2 86.4c-.7-1.4-.5-3 .3-4.2l53-76.9c.8-1.1 2.1-1.8 3.5-1.8z"/><path class="st0" d="M100 63.3c8 0 14.4 6.5 14.4 14.4 0 8-6.5 14.4-14.4 14.4-8 0-14.4-6.5-14.4-14.4S92 63.3 100 63.3zm0 20.5c3.3 0 6.1-2.7 6.1-6.1 0-3.3-2.7-6.1-6.1-6.1-3.3 0-6.1 2.7-6.1 6.1 0 3.4 2.8 6.1 6.1 6.1z"/><path class="st0" d="M100 3.5c2.3 0 4.2 1.9 4.2 4.2v59.8c0 2.3-1.9 4.2-4.2 4.2-2.3 0-4.2-1.9-4.2-4.2V7.7c0-2.3 1.9-4.2 4.2-4.2zM64.1 140.3h71.8c2.3 0 4.2 1.9 4.2 4.2v47.9c0 2.3-1.9 4.2-4.2 4.2-2.3 0-4.2-1.9-4.2-4.2v-43.7H68.3v43.7c0 2.3-1.9 4.2-4.2 4.2-2.3 0-4.2-1.9-4.2-4.2v-47.9c0-2.4 1.9-4.2 4.2-4.2z"/></svg>