<svg xmlns="http://www.w3.org/2000/svg" viewBox="0 0 200 200"><path d="M52.2 183.2V16.8c0-.5 0-1 .1-1.5 0-.5.1-1 .2-1.4.1-.5.2-.9.4-1.4.1-.5.3-.9.5-1.4.2-.4.4-.9.6-1.3.2-.4.5-.8.7-1.2s.6-.8.9-1.2c.3-.4.6-.7 1-1.1.3-.3.7-.7 1.1-1l1.2-.9c.3-.2.7-.4 1.1-.6s.9-.4 1.3-.6c.4-.2.9-.3 1.4-.5.5-.1.9-.3 1.4-.4.5-.1 1-.2 1.4-.2.6-.1 1-.1 1.5-.1h66c.5 0 1 0 1.5.1.5 0 1 .1 1.4.2.5.1.9.2 1.4.4.5.1.9.3 1.4.5.4.2.9.4 1.3.6.4.2.8.5 1.2.7l1.2.9c.4.3.7.6 1.1 1 .3.3.7.7 1 1.1l.9 1.2c.3.4.5.8.7 1.2s.4.9.6 1.3c.2.4.3.9.5 1.4.1.5.3.9.4 1.4.1.5.2 1 .2 1.4 0 .5.1 1 .1 1.5v166.3c0 .5 0 1-.1 1.5 0 .5-.1 1-.2 1.4-.1.5-.2.9-.4 1.4-.1.5-.3.9-.5 1.4-.2.4-.4.9-.6 1.3-.2.4-.5.8-.7 1.2l-.9 1.2c-.3.4-.6.7-1 1.1-.3.3-.7.7-1.1 1l-1.2.9c-.4.3-.8.5-1.2.7s-.9.4-1.3.6c-.4.2-.9.3-1.4.5-.5.1-.9.3-1.4.4-.5.1-1 .2-1.4.2-.5 0-1 .1-1.5.1H67c-.5 0-1 0-1.5-.1-.5 0-1-.1-1.4-.2-.5-.1-.9-.2-1.4-.4-.5-.1-.9-.3-1.4-.5-.4-.2-.9-.4-1.3-.6-.4-.2-.8-.5-1.2-.7l-1.2-.9c-.4-.3-.7-.6-1.1-1-.3-.3-.7-.7-1-1.1l-.9-1.2c-.3-.4-.5-.8-.7-1.2s-.4-.9-.6-1.3c-.2-.4-.3-.9-.5-1.4-.1-.5-.3-.9-.4-1.4-.1-.5-.2-1-.2-1.4v-1.5z" fill="#14191c"/><path d="M91 189.3c0-.2 0-.3.1-.4.1-.1.2-.2.3-.2h29.3c.1 0 .2.1.3.2.1.1.1.2.1.4s0 .3-.1.4c-.1.1-.2.2-.3.2H91.4c-.1 0-.2-.1-.3-.2-.1-.1-.1-.2-.1-.4z" fill="#e9eff4"/><path d="M142.7 16.6c0-.3-.1-.7-.1-1-.1-.3-.1-.7-.2-1l-.3-.9c-.1-.3-.3-.6-.4-.9-.2-.3-.3-.6-.5-.9-.2-.3-.4-.5-.6-.8-.2-.3-.4-.5-.7-.7l-.7-.7c-.3-.2-.5-.4-.8-.6-.3-.2-.6-.4-.9-.5-.3-.2-.6-.3-.9-.4l-.9-.3c-.3-.1-.6-.2-1-.2-.3-.1-.7-.1-1-.1h-9.3V9c0 .3 0 .6-.1.9-.1.3-.1.6-.3.9-.1.3-.3.5-.4.8-.2.2-.4.5-.6.7s-.4.4-.7.6c-.2.2-.5.3-.8.4l-.9.3c-.3.1-.6.1-.9.1H80.4c-.3 0-.6 0-.9-.1s-.6-.1-.9-.3c-.3-.1-.5-.3-.8-.4-.2-.2-.5-.4-.7-.6-.2-.2-.4-.4-.6-.7s-.3-.5-.4-.8l-.3-.9c-.1-.3-.1-.6-.1-.9V7.4h-9.3c-.3 0-.7.1-1 .1-.3.1-.7.1-1 .2l-.9.3c-.3.1-.6.3-.9.4-.3.2-.6.3-.9.5-.3.2-.5.4-.8.6-.3.2-.5.4-.7.7l-.7.7c-.2.3-.4.5-.6.8-.2.3-.4.6-.5.9-.2.3-.3.6-.4.9l-.3.9c-.1.3-.2.6-.2 1-.1.3-.1.7-.1 1v166.7c0 .3.1.7.1 1 .1.3.1.7.2 1l.3.9c.1.3.3.6.4.9.2.3.3.6.5.9.2.3.4.5.6.8.2.3.4.5.7.7l.7.7c.3.2.5.4.8.6.3.2.6.4.9.5.3.2.6.3.9.4l.9.3c.3.1.6.2 1 .2.3.1.7.1 1 .1h67c.3 0 .7-.1 1-.1.3-.1.7-.1 1-.2l.9-.3c.3-.1.6-.3.9-.4.3-.2.6-.3.9-.5.3-.2.5-.4.8-.6.3-.2.5-.4.7-.7l.7-.7c.2-.3.4-.5.6-.8s.4-.6.5-.9c.2-.3.3-.6.4-.9l.3-.9c.1-.3.2-.6.2-1 .1-.3.1-.7.1-1V17.6c.4-.3.4-.6.3-1z" fill="#fff"/></svg>